<svg id="Layer_16" data-name="Layer 16" xmlns="http://www.w3.org/2000/svg" xmlns:xlink="http://www.w3.org/1999/xlink" width="210mm" height="148.5mm" viewBox="0 0 595.28 420.94">
  <defs>
    <style>
      .cls-1 {
        fill: #fff;
      }

      .cls-2, .cls-23, .cls-24, .cls-25, .cls-30 {
        fill: none;
      }

      .cls-26, .cls-27, .cls-28, .cls-3, .cls-31, .cls-32, .cls-33, .cls-34 {
        fill: #333132;
      }

      .cls-4 {
        clip-path: url(#clip-path);
      }

      .cls-5 {
        fill: #d9f1fd;
      }

      .cls-6 {
        mask: url(#mask);
      }

      .cls-7 {
        opacity: 0.6;
      }

      .cls-8 {
        fill: #84c98b;
      }

      .cls-9 {
        fill: #ffe39c;
      }

      .cls-10 {
        fill: #9e76b4;
      }

      .cls-11 {
        fill: #a1d078;
      }

      .cls-12 {
        fill: #ffe3a6;
      }

      .cls-13 {
        fill: #7fcbae;
      }

      .cls-14 {
        fill: #f9aa8f;
      }

      .cls-15 {
        fill: #ca7d9a;
      }

      .cls-16 {
        fill: #e8e6d4;
      }

      .cls-17 {
        fill: #97adda;
      }

      .cls-18 {
        fill: #ffce7b;
      }

      .cls-19 {
        fill: #63c29d;
      }

      .cls-20 {
        fill: #b19aca;
      }

      .cls-21 {
        fill: #b0acd5;
      }

      .cls-22 {
        fill: #c9654c;
      }

      .cls-23 {
        stroke: #fff;
        stroke-width: 1.42px;
      }

      .cls-23, .cls-24, .cls-25, .cls-30 {
        stroke-miterlimit: 10;
      }

      .cls-24 {
        stroke: #c9654c;
        stroke-width: 2.83px;
      }

      .cls-25 {
        stroke: #00b8ec;
        stroke-width: 0.99px;
      }

      .cls-26 {
        font-size: 12.76px;
      }

      .cls-26, .cls-31, .cls-32 {
        font-family: Carlito-Bold, Carlito;
      }

      .cls-26, .cls-27, .cls-31, .cls-32 {
        font-weight: 700;
      }

      .cls-27, .cls-31, .cls-34 {
        font-size: 9.92px;
      }

      .cls-27 {
        font-family: Carlito-BoldItalic, Carlito;
      }

      .cls-27, .cls-29 {
        font-style: italic;
      }

      .cls-28 {
        font-size: 11.34px;
      }

      .cls-28, .cls-33, .cls-34 {
        font-family: Carlito;
      }

      .cls-29 {
        font-size: 14.17px;
        fill: #00b8ec;
        font-family: Carlito-Italic, Carlito;
      }

      .cls-30 {
        stroke: #333132;
        stroke-width: 1.42px;
      }

      .cls-32 {
        font-size: 8.5px;
      }

      .cls-33 {
        font-size: 7.09px;
      }
    </style>
    <clipPath id="clip-path">
      <rect class="cls-2" width="595.28" height="420.94"/>
    </clipPath>
    <mask id="mask" x="0" y="-10.39" width="618.41" height="440.64" maskUnits="userSpaceOnUse">
      <path class="cls-1" d="M596.93,194.26l-4.08-1.11-2.37,1-4.37-1.55-4.15,1.7-1.77-1.33,6.44-9,3.18-1.11,2.52-4-1.92-2.74-3.63,1.26-4.15.37-6.52,3-5.85-1.48-2.67.89-3.53-3.78,8.11-1.66,2.5-3.23-5.95.28-8.39,3.45-6.16,3.39-1.34,9.55-3.05,5.39-4.95,3.56-.77,3.27,2.66,3.67.45,9.33-5.11,3.28-2.73-3.11-1.77,2.17,1.66,19.55,1.56,6L539.22,244l-3.7,1-1.41,4.37,1.48,6.82-3.92,6.59,3.7,1.78,3.33,3.25,1.63,2.23.89,3.92,6.3,4.52,9.85,1.56-.22,4-3.41,2.07-6.18-.11-3.34,2.33-5.44,2-4.11,8.23L529.56,302l-5.23,8-.27-4.44,4.77-6.17-9.09.57-4.52-2.11-7.22.08-3.17-1-5.27,3.67-6.06,3.11-5.44,2.06,1.94,4.89,6,1.55,1.5,2.34-5.67-1.5-.83,1.22,2.17,3.16-1.11,1.17L488.61,316l-3,1.11,3.28,2.56-1.17,1.22-3.28-1.39-2-3.28-5.77-2.05-.73-4.39h-3l-.77,3.55.89,7.11,6.88,8.5,5.5,3.67.89,2.89-2.22,1.56-1.05-3.17-2.84-.22-.33,3.33,2.72,2.11L480,342.22l4.06,2.61,4.83,1.17,3.28,2.56,7.11,1.72,2.72,9.78h-1.72l-6.34-4.28-6.61,3.33,1.67,3.95,4.56,1.11,2.05,1.83-4.94,3.28-2.89-3.45-4.56.11,2.5,5.67,4.84,6.39,1.88,6.78-2-.34-3.61-3.55-2.77.17-1.17,6-1.61-.56-2.61-6.33-3.78-2.5-.95,4-1.11,1.16-5.27-5.33.44-6.22-5.33-3.72-4.56-4.12,2.45-1.48,2.29-4,3.11-.07,4.37-2.45,8.82,1.78,4.52,1.78,4.52-4.67-7.41-2.22-8,.22-8.08,2.23-4.81-.82-3,1.48L454.41,350l-3.71-1.7v-2.52l4,.15.52-2.52-4.15-.44-2.29.66-4.08-4-7-5.92-2.52-6.15-8.3-4.59,1-3.49-1.78-3.7,1.19-4.81L426,300.33l.52-3.33-5-3-9-7.93L400.56,280l-9-2.3.48-3.22-4.44-3.26-7.48-2.89-4.56,1.07-4.52-4.51-8.88-7.45,1.7-2.92-5.41-6-1.85-8.08L351.15,237l-2.59,2.3-3.19,7.63-1.63-.37-2.89-6.45-.66-5,3-2.44-3.26-3.26-1.41,1.26-4.52.07-2.74,2.52-6.81,2.67-2.52,4.3,2.74,3.7,2,1.26-1,3.18-2.45.52.74,6.37,3.41,6.22,8.15,5.56,6.15,3.41L348,285.67l6.59,7.7,9.63,5.78,13-.59,2,2.81L376,305.44l3.41,2.89L394,313.52l19.85,11.55.08,9.26-5-1.18-3-5.41-6.22-1.48-4.3-2.74-4.81,3-3,10.67,3.11,4.44,5.26,1.93,2.15,7.48-1.41,2.22-5.26,1-1.63,3.11-.22,5.78-5.56,6.52-1.48,3L378,371.59l.3-5,2.59-2.74.08-4.74,4.37-4.37L382,349.86l-6.81-16.05-4.82.52-6.66-3-.3-5.49-3.63-2.44L355,324l-4.74-6.37-7.19-4.66-6.74.37-11-7.93L316,294.85l-6.15-1.55-1.41-4.45-5.18-5.41L300.63,282l.07-5.11-2.44-4.74-2.52-7.78-6.59-2.81-11.41-6-7.55,4.59-4.52,7-12.15,4.66-5,5.41-10.15,2.08-6.3-3.11-1.63-4.3-7.85.59-8.89-4.89-7.33,4.74-7.19,8.08,2.52,9.85-3.41,9.18-12.44,5.41L182,308l-14.37,2.6-4.37,3.4,1.56,2.3-2.59,2-3.71,1.33-13.55,15.56.22,10.66,4.74,4.08L148.11,353l-9.48,4.22L134,363.67l-.08,5.77-8.59.6-8.44,4.52-6.45,7.77-5.41-1.55-4.37,1-14.29-4.15-9.85-.52-4.89,3.41L67.59,379l-10.37,6.3L50,380.41l-3.26-8.52.23-4.89L40,358.93l-13.85,2L18.26,356l-8.3-.23,4.6-7,1.33-9.92,4.44-9-6.52-.74-.29-4.07-2.45-3.34,5.12-10.07L26,301.89l3.85-9.11L34,285.67l-.07-15.41,5.28-12.37-4.06-9.11,1.56-3.72,6-1.78,4,.72,6.44-4.06,7.56-.27,4.27,4.27,12.45,3.34,8.33.89,15.84,6.72,8.5.39,6.88,3.55,5-.33,6.89,3.06,10.56-1.28,11.17-35.67,3.94,11.22,1.17-6.83-.37-6-3.56-2.81.09-9.75-7.05-6.72-2.72-6.22,1.27-5.28,3.61-.55-2.05-2.95-5.95.17s-3.44-5.89-3.61-5.95-11.83-6.11-11.83-6.11l-5.43-1.09-2.74-5.37,2.19-3.22-2.26-4.52,5.81-2.56,7,1,4.41-1.37,5.46,2.15,1.17,3.78,6.89-.61,7.67,1.38,2.05-8.72-3.28-10.39,1.45-1.22,2.7,1.93,3.74-.43V154l4.48-.3,9.3,3.26,2.67-2.83.72-3.84,12.22-3.83,5.22-4.22,1.34-10.06,5.44-3.55,6.11-.45,9.34-4.33,8.5.17.55-2.17-3.16-3.39,3.22-4.83,5.39-6.11,3.94-11,3.72-.17,1.39,4-1.5,3.28-1,3.5,4.11,2.3,4.89-5.19L245.33,100l-2.14-3.07,1.37-6.11,9.85-2.63,6.78,2.92,1.74-6.14,8-1.12,2.55,4.08,3.67.15.33-5.37,2.26-1.56,5.3,2,5.11,3.19-1.89-4.85L282,76.48l-.07-2.7-2.33-1.11-.34-1.74,3.22-1.34L279.93,63l-.43-10.39L274.22,48l1.22-7.06-.66-10.83,5,1.67,3.82-4.45,9.07-2.55,3.49,2.29,1.25,3.71L301.89,32l.3,4.3-4.52,1.18-4.61,7-3.28,6.28.33,5.22-1.39,3.45,2.17,4,3.5,3.12L294.33,69,300,71.89l4.94-.22.12,2.39-2.62,3.33,1.28,1.33,5,.61,4.39-3.94,5.17-2.33L321.89,69l3.11.94,5.33,5.45,3.61-.06,2.28,5.89,3.78.56,3.33-5,16.34-6.33,3.89-5.94,7.38-4,10.56-2.44,4.94,1.39-.59.92-2.22.11-.07,1,3.29,3.7,5.93-.26,5.11-5.52.39,1.46-4.61,5.47,1.4,1,3.82-3.74,4.18-4.6-4.14-1.81.07-3.89,5.3-2.18,3-5.15.22,2.63-1.11,3.63,2.41.77,2.44-1.26L410,44l-3-9L404.48,18,407,13.56s-.15-5.23-.15-5.34,2.48-5.81,2.48-5.81l5.93-3.52,4,3.55,4.18,2.67L425.59,9l5.3,1.33,4.92-6.3-1.74-7.44H618.41V177.81Z"/>
      <polygon class="cls-1" points="432.89 331.44 432.11 333.33 436.67 338.33 439.72 339.28 439.28 337.5 435.83 334.67 435.22 331.78 432.89 331.44"/>
      <polygon class="cls-1" points="280 20.3 275.78 26.15 278.81 29.04 282.59 25.22 293.26 22.33 296.41 22.85 299.37 17.44 298.07 12 299.56 8.96 293.33 12 288.19 19.44 283.07 19.63 280 20.3"/>
      <polygon class="cls-1" points="329.64 64.81 327.25 67.58 327.72 70.42 329.94 72.69 333.19 71.42 332.03 68.31 332.42 66.53 329.64 64.81"/>
      <polygon class="cls-1" points="343.37 52.7 342.7 56.15 346.15 57.74 347.15 57.26 347.74 55.52 343.37 52.7"/>
      <polyline class="cls-1" points="307.17 -2.78 307.89 2.28 310.39 5 311.17 9.33 312.83 14.83 315.06 17.17 316.89 23.06 320.5 27.28 322.83 29.22 323.06 31.39 321.28 32.5 322.06 35.72 319.17 35.17 320.89 40.28 323.94 43.83 323.83 51.11 328.17 53.22 333.89 51.06 337.17 50.83 339 48.89 337 44.72 339.83 39.06 342.17 39.44 342.83 36.56 351.06 35.78 353.5 36.5 357.89 23.78 359.11 17.94 358.11 13.94 359.61 10.33 358.44 4.72 358.67 -0.72"/>
      <polygon class="cls-1" points="360.31 21.78 358.42 27.69 359.06 33.86 360.5 33.58 360.56 31.19 364.06 13.67 362.64 14.03 361.03 20.61 360.31 21.78 360.31 21.78"/>
      <polygon class="cls-1" points="378.48 1.85 375.15 4.78 373.96 10.67 375.37 15.19 375.04 19.59 377.19 18.74 377.89 14.74 380.19 13.11 381.41 9.78 380.19 7.11 380.41 3.78 383.44 -0.33 381.07 -0.89 379.78 1.52 378.48 1.85"/>
      <polygon class="cls-1" points="318.96 40.26 316.11 39.7 313.36 41.47 312.73 46.55 311.07 46.46 310.11 42.43 307.86 44.23 306.62 46.35 304.11 46.81 305.02 49.73 306.37 51.79 305.81 54.8 306.96 56.07 310.78 55.85 311.74 61.26 313.22 63.63 315.43 63.09 315.78 56.45 318.83 53.87 316.81 50.81 318.82 48.13 320.7 47.41 318.96 43.26 318.96 40.26"/>
      <polygon class="cls-1" points="305.72 61.03 303.77 61.25 303.37 64.19 307.58 66.61 309.64 65.91 310.88 66.08 311.08 63.22 308.31 63.02 305.72 61.03"/>
      <polygon class="cls-1" points="292 50.11 292 53.33 293.36 56.81 298.72 58.94 302.08 56.78 302.36 53.58 300.58 48.39 298.53 49.72 296.64 48.78 292 50.11"/>
      <polygon class="cls-1" points="173.59 -1.44 176.93 1.3 177.7 4.78 175.3 6.18 174 9.63 168.19 18.37 163.04 21.26 165.78 24.26 163.93 26.15 161.15 26.15 155.7 28.56 160.48 30.3 163.89 29.37 168.63 32.56 173.59 41 174.72 55.06 180.39 61.22 185.5 68.81 184.22 72.03 186.25 77.86 183.14 77.92 185.36 80.42 187.89 86.33 184 90.94 186.5 93.5 190.28 90.94 198.72 92.83 201.5 98 199.67 107.22 196.5 110.06 193.78 113 190.39 113 189.89 116.61 186.83 118.17 188.78 120.78 195.61 120.94 194.22 124.89 190.28 126.33 189.44 128.44 180.22 130.83 175.39 128.72 158.39 127.89 154.11 129.67 148.44 128.67 144.94 126 138.56 126.67 134.94 132.67 132.22 132.61 129 129.22 120.06 130.22 114.44 133.28 110.83 131.06 114.28 128.61 117.52 127.67 125.89 121 127.52 117.37 129.89 117 132.81 114.26 141.07 116.11 145.37 115.15 151.22 109.96 146.07 110.63 141.93 112.59 137.19 108.37 132.78 107.52 131.33 103.96 125.74 104.89 122.44 102.22 123.44 98.44 135.07 94.78 138.89 90.19 137.89 83.07 132.11 84.52 134.63 81.26 136.7 80.44 141.37 77.3 147.22 77.41 153.67 71.59 156.39 63.06 152.28 62.17 150.11 55.72 153.72 49.33 151.28 47.33 146.28 49.56 143.11 48.39 138.61 47.39 136.61 49.11 134.89 45.61 135.44 43.22 137.67 42.11 142.22 35.33 140.61 30.5 143.04 25.48 138.74 26.59 137.48 23.74 136.26 25.67 132.15 36.04 131.07 34 134.74 23.52 139.33 15 134.37 13.26 132.78 9.59 136.81 6.74 139.44 3 139 -1.56 173.59 -1.44"/>
      <polygon class="cls-1" points="127.41 24.52 124.85 25.7 126.93 30.11 129 27.48 129.11 24.59 127.41 24.52"/>
      <polygon class="cls-1" points="131.19 11.83 129.43 12.43 130.36 14.7 128.22 16.68 128.89 18.03 132.96 18.33 134.32 15.36 132.48 14.65 131.19 11.83"/>
      <polygon class="cls-1" points="130.3 -0.41 132 1.78 133.52 4.15 136.19 3.22 137.56 1.52 134.15 -0.81 130.3 -0.41"/>
      <polygon class="cls-1" points="140 55.59 137.15 57.96 135.67 60.56 137.26 61.63 141.04 58.81 140.93 55.63 140 55.59"/>
      <polygon class="cls-1" points="111.59 90.37 111.67 88.26 114.93 84.37 118.48 76.52 118.67 61.3 120.52 57.89 124.15 57.81 128.33 53.78 130.26 49.41 128.41 47.52 129.04 44.52 126.48 40.93 125.81 36.78 118.04 36.33 114.48 31.26 110.7 34.41 103.52 33.07 102.15 36.85 97.56 39.44 98.89 42.19 102.52 42.67 101.11 45.44 97.63 46.44 95.04 47.89 90.67 46.04 81.52 43.85 80.48 46.22 82.59 49.07 81.78 54.37 77.56 56.81 76.85 59.81 81.93 64.11 86 64.48 86.3 66.59 82.52 67.63 80.44 71.56 75.11 73.48 76.7 74.48 82.78 74.93 81.26 76.22 76.15 76.48 73.93 79.11 69.59 78.52 67.59 81.07 70.33 83.26 65.85 85.44 66.33 87.11 71.3 88.33 68.48 90.96 72.19 91.67 70.11 94.19 74.59 94.89 83.89 95.3 86.97 94.64 88.15 91.7 91.58 93.42 101.04 89.85 111.59 90.37"/>
      <polygon class="cls-1" points="195.59 333.81 189.63 335.22 183.59 339.07 185.04 341.93 187.93 340.81 189.44 343.85 192.81 345.85 195.56 344.44 199.3 338.96 198.33 336.63 196.48 337.93 195.59 336.89 196.3 334.48 195.59 333.81"/>
      <polygon class="cls-1" points="171.89 347.33 167.74 347.15 165.59 349.96 167.52 351.33 171.37 349.3 171.89 347.33"/>
      <polygon class="cls-1" points="205.59 332.7 205.22 334.74 207.59 335.11 210.96 337.33 212.15 336.22 209.85 333.07 205.59 332.7 205.59 332.7"/>
      <path class="cls-1" d="M309.7,421.56l-.89-3.6-5.11-2.74L301,409.78l.63-4.41,4.18-2.52,2.15-4.66,2.81-3.12-1.51-3.51-4,3-2.82.51L300.26,398l-1.93-.67.15-2-1.55-2.4V389.7l-3.12-1.22-2.74.71-1.77-1.82-6.82,2.07-6.67,4.3-6.37.22-7.4,1.56L256.78,392,251,390.93l-.07,2.44-7.34-.74-3.33-2.15-2.74.67-2.59,2.59L222,397.3,217.37,394,207,392l-10.59,1.19-8.15-1.37-8,2.92-17.52-.89s-16.7,4.52-16.81,4.52-4.45,4.08-4.45,4.08l-3.11,1.81-4.4-1.55L126,405.19l-7.19,4.18-8.92,3.33-7.26-.4-8.52-2.49-.89-5-6.7,2.45-5-2.33-9.25.4-8.62-5-5.08-8.47,1.75-3.2-1.61-.77L56.31,389l-6.57,0L38.63,406.19,28,417.67l-13.18,4.14v7.56h299Z"/>
      <polygon class="cls-1" points="271.96 355.04 275.22 358.11 279.63 356.52 280.52 352.11 286.63 353.48 289.74 336.67 288.48 333.3 290.78 328.37 288.07 320.52 286.52 317.04 283 315.22 278.78 317.3 275.04 321.37 270.22 321.81 268.3 320.59 267.78 324.78 271.3 330.22 271.81 335.11 270.59 337.93 272.59 340.37 271.19 345 270.37 348.07 270.63 351.33 271.96 355.04"/>
      <polygon class="cls-1" points="277.11 307.93 282.04 311.74 285.07 306.56 285.04 302.04 287.78 297.44 287.07 289.81 286.11 288.3 285.93 281.78 284.52 282.15 283.7 287.63 281.7 287.11 278.7 288.85 275.7 290.33 274.04 293.85 274.96 295 274.11 297.11 275.81 299.11 274.41 301.63 276.37 303.26 275.85 305.07 278.04 306.26 277.11 307.93"/>
      <polygon class="cls-1" points="350.11 240.75 349.42 242.16 350.37 247.25 352.15 250.56 352.58 249.96 351.71 243.84 350.11 240.75"/>
      <polygon class="cls-1" points="380.75 274.44 383.19 274.06 386.56 274.92 390.11 274.86 389.61 275.89 385.75 276.22 381.69 275.64 380.75 274.44"/>
      <polygon class="cls-1" points="383.45 278.35 389.29 278.22 390.8 279.37 387.55 279.62 385.99 280.24 383.69 279.1 383.45 278.35"/>
      <polyline class="cls-1" points="596.17 263 590.17 268.61 588.67 273.44 583.22 275.83 575.5 275.5 569.61 278 560.11 279.5 560.06 284.72 563.17 286.19 570.36 285.67 570.56 287.11 561.06 290.36 558.42 293.08 558.94 295.86 547.97 299.08 546.17 297.11 543.61 297.36 542.97 301.17 539.42 302.14 536.69 300.61 534.86 301.56 531.69 302.72 526.42 311.28 524.19 312.56 524.72 321.39 535.61 317.58 536.06 319.28 533.92 322.92 536.61 325.44 537.5 328.47 539.56 331.06 537.61 333.39 539.75 338.97 536.94 339.39 535.11 336.06 533.86 335.58 532.53 337 533.78 339.69 532.75 342.92 536.44 344.11 539.83 343.08 543.08 344.72 548.11 345.33 548.36 349.67 547.08 351.28 550.22 355.89 554.72 356.81 554.44 359.08 551.83 360.44 552.25 362.42 566 358.08 565.44 360.94 562.56 363.06 556.33 366.06 558.67 367.33 562.53 364.81 566.33 365.61 569.36 361.56 576.33 362.44 579.31 361.17 583.5 366.61 589.58 367.92 596.25 365.67"/>
      <polygon class="cls-1" points="528.14 322.44 526.19 323.25 524.83 325.19 522.11 325.94 523.67 328.67 526.94 327.31 527.25 329.47 532.47 329.47 533.22 326.75 530.67 324.58 530.03 322.42 528.14 322.44"/>
      <polygon class="cls-1" points="527.3 337.74 525.07 339.15 527.93 342.19 526.89 344.04 528.59 345.67 530.37 343.11 529.67 338.3 527.3 337.74"/>
      <polygon class="cls-1" points="486.78 337.93 482.41 341.33 483.85 342.3 487.59 342.74 493.41 345.96 494.15 347.63 499.85 347.52 503.3 352.07 508.44 353.85 509.07 350.74 504.59 350.19 502.11 346.26 501 342.78 496 342.48 490.81 340.93 486.78 337.93"/>
      <polygon class="cls-1" points="505.17 398.22 503.17 400.83 502.67 403.67 504.94 405.83 520.83 405.06 522.89 407.78 537.83 403.11 544.89 402.17 545.67 396.42 545.06 395.72 542.78 398.44 540.33 398.94 537.67 401.17 535.89 397.28 532.39 398.39 526.33 399.61 522.39 398.61 514.89 401.78 511.47 400.06 511.42 397.75 509.42 397.83 507.67 399.89 505.17 398.22"/>
      <polygon class="cls-1" points="568.7 369.07 564.59 371.52 562.67 375.59 563.48 377.22 563.52 379.44 564.41 380.52 568.33 376.26 568.3 373.19 569.11 369.78 568.7 369.07"/>
      <polygon class="cls-1" points="525.94 364.75 524 367.17 524.97 369.28 526.28 369.58 527.39 366.61 525.94 364.75"/>
      <polygon class="cls-1" points="449.17 354.86 447.78 357.14 446.28 358.03 446.33 359.97 449.31 361.44 453 361.64 452.94 359.83 450.19 358.14 451.72 356.42 450.78 354.28 449.17 354.86"/>
      <polygon class="cls-1" points="452.08 364.42 451.06 366.03 454.25 368.69 457.08 367.81 455.17 365.31 453.56 365.5 452.08 364.42"/>
      <polygon class="cls-1" points="508.31 315.28 508.89 318.36 511.31 317.42 512.75 318.25 513.81 313.86 513.14 313.75 511.31 314.81 509.61 314.78 508.31 315.28"/>
      <polygon class="cls-1" points="500.03 303.03 498.36 305.33 500.61 306.89 502.08 305.25 501.72 302.92 500.03 303.03"/>
      <polygon class="cls-1" points="545.12 349.32 541.27 349.52 538.86 351.18 539.02 352.43 541.78 351.98 542.77 352.42 545.49 350.23 545.12 349.32"/>
      <polygon class="cls-1" points="511.69 352.42 510.94 354.22 514.44 357.08 518.86 359.69 520.5 357.89 516.56 356.69 514.31 353.61 511.69 352.42"/>
      <polygon class="cls-1" points="512.97 375.19 512.86 377.11 510 378.42 509.92 376.47 511.67 376.08 512.97 375.19"/>
      <polygon class="cls-1" points="555.89 383.81 555.74 386.89 555.07 388.15 556.59 391.11 558.33 389.81 556.89 387.85 556.89 383.52 555.89 383.81"/>
      <polygon class="cls-1" points="363.67 412.03 363.42 411 361.19 409.36 357.97 408.31 358.72 410.14 360.14 410.75 361.31 412.78 363.94 413.06 363.67 412.03"/>
      <polygon class="cls-1" points="333.39 370.96 331.94 372.91 330.11 374.3 329.56 378.57 332.89 382.02 336.72 381.74 352 390.07 356.44 389.72 361.94 394.83 366.22 396.19 370.89 396.35 370.67 393.02 372.83 389.24 371.22 385.85 369.39 383.19 371.06 375.96 375.89 366.85 374.22 366.27 370.78 367.69 369 369.35 363.56 369.57 359.22 372.35 352.17 372.85 348.56 373.69 342.44 370.52 338.67 370.46 338.11 372.74 335.67 373.07 333.39 370.96"/>
      <polygon class="cls-1" points="260.83 -1.07 260.2 1.19 261.3 2.13 263.31 1.07 264.5 3.19 270.15 3.22 275.04 0.93 276.8 1.11 277.67 -1.07 260.83 -1.07"/>
    </mask>
    <symbol id="city" data-name="city" viewBox="0 0 4.25 4.25">
      <circle class="cls-3" cx="2.13" cy="2.13" r="2.13"/>
    </symbol>
  </defs>
  <title>Hungarian Invasion of Europe</title>
  <g id="Layer_15" data-name="Layer 15">
    <g class="cls-4">
      <g id="water">
        <rect class="cls-5" width="595.28" height="420.94"/>
      </g>
      <g class="cls-6">
        <g id="LAND_MASK" data-name="LAND MASK">
          <rect class="cls-1" width="595.28" height="420.94"/>
          <g id="pol_copy" data-name="pol copy" class="cls-7">
            <polygon class="cls-8" points="243.61 299.16 238.26 327.3 191.44 359.74 119.56 393.33 64.56 386.44 51.67 386.22 30.78 381.22 2.89 358.89 4.11 310 28.11 278.3 28.67 277.56 52 283.44 61 287.89 65.44 283.44 70.89 283.11 86.33 289.44 97.11 282.11 102.33 284.11 112.89 275.89 115.4 276.54 121 278 127.89 284.11 134.67 286.11 138.11 281.33 145.59 275.44 151.07 277.67 157.15 285.07 171.15 288.04 176.56 299.74 185.89 304.85 192.41 314.11 213.49 292.24 243.61 299.16"/>
            <polygon class="cls-9" points="350.94 237.56 350.25 238.75 344.44 241.44 343.37 234.52 339.83 232.28 339.89 229.37 338.17 226.06 334.83 224.11 319.67 231.56 317.44 239 306.33 239.96 305.81 246.78 300.7 256.7 301.74 260.93 306.78 256.85 315 256.63 319.22 273.52 315.96 279.37 314.11 288.11 309.89 293.3 306.33 297 303.34 339.14 302.33 353.44 279.67 363.67 261 355.89 264.4 303.93 265.96 280.19 259.67 271.33 260.56 264.22 263 260.33 255.89 256.11 253.67 252.11 256.89 241.56 255.78 235.67 258.38 231.53 258.44 231.44 264.44 230.22 266 220.33 275.33 213.78 287.11 216 293 213 303.61 210.78 306.72 212.39 306.06 215.44 307.83 215.39 317.44 208.5 327.33 208.17 336.33 210.83 339.5 214.28 342.78 217.78 341.83 226.89 346.56 228.5 348.31 227.79 350.94 237.56"/>
            <polygon class="cls-9" points="330.48 271.59 326.41 280.48 326.93 290.19 330.78 291.22 341 301.89 340.11 307.52 331.59 318.56 315.74 339.74 303.34 339.14 306.33 297 309.89 293.3 314.11 288.11 315.96 279.37 319.22 273.52 315 256.63 306.78 256.85 301.74 260.93 300.7 256.7 305.81 246.78 306.33 239.96 317.44 239 326.93 241.37 341.88 257.67 345.81 261.96 344.93 268.56 337.59 272.41 330.48 271.59"/>
            <path class="cls-10" d="M607.67,266.78,596.56,429.44l-160-23.33L376,377.67l1-13.11-.44-7.56-.89-12.44,19.77-6.12-1.55-10.77-13-4.08-5.34-6.44-11.63-5-.63-6.89,5.45-10.55,4.9-18.65.54.42,2.28-2.7,24.06,20.15,21.63,2.33,11.12-2.15,1.25,20.63-10.45-1-1,4.55,7.78,1.34L443,326.67l14.56.33,5.11-3.22.44-7.34,3.33-6.44,1.34-7,3.89-1.67,4.77,2.78,10.89-6.55,8.11-.12,13.89-5,1.45-10.88,3.11-3.34,7.55,2.34,10.67-1.12,8.89,1.34,12.78-11.56s17.22-10.89,17.44-11.55a7.57,7.57,0,0,1,2.09-.8c5.68-1.78,21-5.65,21-5.65Z"/>
            <path class="cls-11" d="M573.31,256.87a7.57,7.57,0,0,0-2.09.8c-.22.66-17.44,11.55-17.44,11.55L541,280.78l-8.89-1.34-10.67,1.12-7.55-2.34-3.11,3.34-1.45,10.88-13.89,5-8.11.12-10.89,6.55-4.77-2.78L467.78,303l-1.34,7-3.33,6.44-.44,7.34L457.56,327,443,326.67l-12.11-7.11-7.78-1.34,1-4.55,10.45,1-1.25-20.63-.38-6.33,5-3.48,2.59-9-.22-16.82L436.11,256l-5.78-6.52-11.77-1.78L412,242.11l.74-8.59,11.7-1.48,10.82,7.11,7.11-3.11,12.29,3.26,2.23-12.89,26.81-9.93,10.37,1,8.74-5.93v-8.52l-9.7-13.26L485.67,187l-9.93-11.63,13.2-3.93,12.12.73,13.27-6.39,12.06,2.05,8.22,6.95,1.72,6.61,21.89,13Z"/>
            <polygon class="cls-12" points="397.59 155.15 387.67 167.96 379.22 170.72 374.7 167.3 366.04 168.63 360.19 165.15 353.15 165.15 349.44 170.26 339.96 171.74 337.89 167.67 321.59 155.59 316.48 149.74 317 144.56 319.22 141.44 318.78 136.85 324.7 135.07 329.37 131.07 338.63 130.04 342.26 125.81 350.78 126.56 354.48 131.52 363 132.85 371.44 132.04 376.56 136.78 382.41 141.3 386.33 138.33 392.26 143 397.59 155.15"/>
            <polygon class="cls-13" points="163.52 149.89 161 159 161.74 165.89 160.56 170.41 161.81 178.85 158.63 187.37 154.04 189.15 148.41 196.78 141.3 194.63 127.59 195.64 116.78 196.44 106.11 158.56 157.67 138.33 165.2 139.88 166.33 140.11 163.52 149.89"/>
            <polygon class="cls-10" points="440.48 275.3 440.26 258.48 436.11 256.04 430.33 249.52 418.56 247.74 412.04 242.11 412.78 233.52 409.67 231 402.11 233.22 397.52 222.85 385.96 220.93 378.85 215.44 364.36 217.1 364.94 220.72 357.17 228.06 351.89 226.33 348.31 227.79 350.94 237.56 350.25 238.75 350.56 238.61 348.78 241.11 347.17 252.67 345.79 253.98 373.68 276.02 374.22 276.44 376.5 273.74 400.56 293.89 422.19 296.22 433.31 294.07 432.93 287.74 437.89 284.26 440.48 275.3"/>
            <polygon class="cls-14" points="355.33 51.67 346.89 66.33 326.44 61.89 310.89 71.67 308.8 70.77 310.72 67.72 299.11 68.22 290.83 74.5 279.22 75 265.8 75.94 253.78 42.22 284.78 4.33 301.3 4.01 301.67 4 309.44 9.5 316.39 9.33 320.06 17.83 328.72 30.22 341.67 30.67 344.89 38 352.71 48.24 355.33 51.67"/>
            <polygon class="cls-1" points="350.56 238.61 348.78 241.11 347.17 252.67 345.79 253.98 341.88 257.67 326.93 241.37 317.44 239 319.67 231.56 334.83 224.11 338.17 226.06 339.89 229.37 339.83 232.28 343.37 234.52 344.44 241.44 350.25 238.75 350.56 238.61"/>
            <path class="cls-15" d="M266,280.19l-1.56,23.74-20.79-4.77-30.12-6.92.77-.8,1-10,1.41-9.4,3.81-6.93-1.22-4.44-4.11-1-2.55-8,6.33-6.23,1.78-9.22L215,233.89l-.67-3.78-2.22-4.44,4.33-4.45,3,4,7.45-2.89,1.22-8.66L230,210l2.76,8.35,4.95,1.67,8,8.11,9.66.17c.14,0,2.39,2.51,3,3.25l-2.6,4.14,1.11,5.89-3.22,10.55,2.22,4,7.11,4.22-2.44,3.89-.89,7.11Z"/>
            <path class="cls-16" d="M377,180.61c-.06.17-8.28,4.72-8.28,4.72s1,9,1,9.23-4.11,3.77-4.11,3.77l1.78,10-3.56,5.45.53,3.32.58,3.62-7.77,7.34-5.28-1.73-3.58,1.46-1.75.71-4.73-1.61.95-9.11-3.28-3.5-3.17-3.45-9-2.66-9.89.33-9.61,6.89-1.77.05.66-3.05-3.11-1.61L293,213l-5.89,3-11.78-2.22L269,211.89l-6.15-3.63,1.93-2.82.74-3.25-6.37-3-5,5-5.26-1.93-.37-8.37-4.82-3.19-9.3,2.63L226,190.56l1-8-1.11-10.23,1.11-5.22-2.67-3.67,4.67-5.66-3.78-4.11-3-6.45L213,149.56l-6-2.45,1.44-3,6.12-1.33,1.55-9.89,9.22-2.78-.11-7.33-9.66-4.11,2-5.89L224.44,92l29.23-15.22,12.13-.84L279.22,75l11.61-.5,8.28-6.28,11.61-.5-1.92,3-9,14.34,9.44,4.56,2.61,7.22L310,103s2,6.22,2.06,6.44,3.05,5.5,3.05,5.5-1.94,3.67-2,3.89-.44,6-.44,6l-3.84,4.05,5.17,3.5,4-.39.78,4.91.44,4.59L317,144.56l-.52,5.18,5.11,5.85,16.3,12.08,2.07,4.07,9.48-1.48,3.71-5.11h7l5.85,3.48,8.66-1.33,4.52,3.42S377.06,180.44,377,180.61Z"/>
            <polygon class="cls-1" points="73.37 259.96 69.22 264.56 69.3 273.37 70.85 277.44 70.89 283.11 65.44 283.44 61 287.89 52 283.44 28.67 277.56 28.11 278.3 24.33 238.78 62.56 230.11 83.18 237.14 73.15 253.07 73.37 259.96"/>
            <path class="cls-1" d="M117.81,260.63l-2.44,4.52s2.15,4.07,2.15,4.29-1.33,3.93-1.33,3.93l-.79,3.17-2.51-.65-10.56,8.22-5.22-2-10.78,7.33-15.44-6.33,0-5.67-1.55-4.07-.08-8.81,4.15-4.6-.22-6.89,10-15.93,36.41,12.41Z"/>
            <path class="cls-1" d="M145.89,265.37l-.3,10.07-7.48,5.89-3.44,4.78-6.78-2L121,278l-5.6-1.46.79-3.17s1.33-3.7,1.33-3.93-2.15-4.29-2.15-4.29l2.44-4.52,1.78-11.08,3.41,1.16,11.93,4.07,4.46,5.5Z"/>
            <path class="cls-15" d="M275.33,213.78,266,220.33l-1.56,9.89-6,1.22-.06.09c-.66-.74-2.91-3.25-3-3.25l-9.66-.17-8-8.11-4.95-1.67L230,210l4.48-9v-7.67l9.3-2.63,4.82,3.19.37,8.37,5.26,1.93,5-5,6.37,3-.74,3.25-1.93,2.82,6.15,3.63Z"/>
            <polygon class="cls-17" points="234.44 193.33 234.44 201 229.96 209.98 228.11 213.67 226.89 222.33 219.44 225.22 216.44 221.22 212.11 225.67 214.33 230.11 215 233.89 220.67 236.22 218.89 245.44 212.56 251.67 215.11 259.67 219.22 260.67 220.44 265.11 216.63 272.04 215.22 281.44 214.26 291.44 213.49 292.24 192.41 314.11 185.89 304.85 176.56 299.74 171.15 288.04 157.15 285.07 151.07 277.67 145.59 275.44 145.89 265.37 139.39 260.28 134.93 254.78 123 250.71 127.59 195.64 141.3 194.63 148.41 196.78 154.04 189.15 158.63 187.37 161.81 178.85 160.56 170.41 161.74 165.89 161 159 163.52 149.89 166.33 140.11 165.2 139.88 169.5 134.47 184.48 135.74 201.81 124.33 202.2 116.79 205.33 116.11 206.98 115.66 217.52 112.78 215.56 118.67 225.22 122.78 225.33 130.11 216.11 132.89 214.56 142.78 208.44 144.11 207 147.11 213 149.56 222.22 147.22 225.22 153.67 229 157.78 224.33 163.44 227 167.11 225.89 172.33 227 182.56 226 190.56 234.44 193.33"/>
            <polygon class="cls-18" points="202.2 116.79 201.81 124.33 184.48 135.74 169.5 134.47 156.63 133.37 109.52 143.15 102.56 129.52 119.61 116 125.07 111.67 143.28 113.33 148.27 111.08 148.94 110.78 160.78 109.28 163.89 112.44 168.34 113.26 172.39 114 180.33 116.72 190.72 119.28 202.2 116.79"/>
            <polygon class="cls-19" points="148.27 111.08 143.28 113.33 125.07 111.67 119.61 116 116.33 93.22 135.89 75 137.58 75.02 146.5 75.14 148.06 84.72 145.33 90.94 144.22 101.56 146.33 104.61 148.27 111.08"/>
            <polygon class="cls-1" points="388.56 14.33 352.71 48.24 344.89 38 341.67 30.67 328.72 30.22 320.06 17.83 316.39 9.33 309.44 9.5 301.67 4 301.3 4.01 304 -9.67 388.22 -8.11 388.56 14.33"/>
            <polygon class="cls-20" points="168.42 109.61 168.34 113.26 163.89 112.44 160.78 109.28 148.94 110.78 148.27 111.08 146.33 104.61 144.22 101.56 145.33 90.94 148.06 84.72 146.5 75.14 146.39 74.44 147.74 73.52 156.33 77.3 161.96 87 162.33 92.78 165.78 94.89 166.81 105.53 168.42 109.61"/>
            <polygon class="cls-14" points="208.22 94.44 206.98 115.66 205.33 116.11 202.2 116.79 190.72 119.28 180.33 116.72 172.39 114 168.34 113.26 168.42 109.61 166.81 105.53 165.78 94.89 162.33 92.78 161.96 87 156.33 77.3 147.74 73.52 146.39 74.44 146.5 75.14 137.58 75.02 133.67 66.33 130.63 56.41 135.42 54.65 133.52 63 147.3 63.59 154.78 63.96 158.63 55.07 156.04 46.7 150.85 40.19 149.81 27.67 159.96 29.22 166.67 26.67 192.67 39.22 208.22 94.44"/>
            <polygon class="cls-1" points="158.63 55.07 154.78 63.96 147.3 63.59 141.74 52.33 135.42 54.65 132.26 46.33 135.67 33.44 140.48 27.52 149.81 27.67 150.85 40.19 156.04 46.7 158.63 55.07"/>
            <path class="cls-8" d="M476.56-2.56l8.22,16.23-.45,14.22L475.67,35,475,60.56,464.33,85.67l15.11,21.77,1.78,7.78L497.89,121,521,136.56l18.89,3.33h17.78l22.66,2.67,21.34-13.12-4-19.77-8.89-1.34-11.11-20,.66-12.44-16.22-2.45-8.67,2.45-4.88-14s8.22-15.33,8-16-3.12-12.45-3.12-12.45l2.67-24.22L547.22-6.56Z"/>
            <polygon class="cls-21" points="73.37 259.96 69.22 264.56 69.3 273.37 70.85 277.44 70.89 283.11 65.44 283.44 61 287.89 52 283.44 28.67 277.56 28.11 278.3 24.33 238.78 62.56 230.11 83.18 237.14 73.15 253.07 73.37 259.96"/>
            <path class="cls-14" d="M117.81,260.63l-2.44,4.52s2.15,4.07,2.15,4.29-1.33,3.93-1.33,3.93l-.79,3.17-2.51-.65-10.56,8.22-5.22-2-10.78,7.33-15.44-6.33,0-5.67-1.55-4.07-.08-8.81,4.15-4.6-.22-6.89,10-15.93,36.41,12.41Z"/>
            <path class="cls-9" d="M145.89,265.37l-.3,10.07-7.48,5.89-3.44,4.78-6.78-2L121,278l-5.6-1.46.79-3.17s1.33-3.7,1.33-3.93-2.15-4.29-2.15-4.29l2.44-4.52,1.78-11.08,3.41,1.16,11.93,4.07,4.46,5.5Z"/>
          </g>
          <path class="cls-22" d="M502.85,203.07v8.52l-8.74,5.93-10.37-1-26.81,9.93L454.7,239.3,442.41,236l-7.11,3.11L424.48,232l-11.7,1.48L409.67,231l-7.56,2.22-4.59-10.37L386,220.93l-7.11-5.49-14.49,1.66-.53-3.32,3.56-5.45-1.78-10s4.11-3.55,4.11-3.77-1-9.23-1-9.23,8.22-4.55,8.28-4.72,2.22-9.89,2.22-9.89l8.45-2.76,9.92-12.81,6.89-2.22,1-3.71,9.7,4.82L433,151.67l4.59,2.52L450.11,153l8.89,4.74,10.15,3.11,6.59,14.52L485.67,187l7.48,2.81Z"/>
          <g id="pol">
            <polyline class="cls-23" points="145.59 275.44 138.11 281.33 134.67 286.11 127.89 284.11 121 278 112.89 275.89 102.33 284.11 97.11 282.11 86.33 289.44 70.89 283.11 65.44 283.44 61 287.89 52 283.44 28.67 277.56 4.11 310 2.89 358.89 30.78 381.22 51.67 386.22 64.56 386.44 119.56 393.33 191.44 359.74 238.26 327.3 244.63 293.81"/>
            <path class="cls-23" d="M297.22,338.85l18.52.89,15.85-21.18,8.52-11,.89-5.63-10.22-10.67-3.85-1-.52-9.71,4.07-8.89,7.11.82,7.34-3.85.88-6.6-18.88-20.59L317.44,239l-11.11,1-.52,6.82-5.11,9.92,1,4.23,5-4.08,8.22-.22,4.22,16.89L316,279.37l-1.85,8.74-4.22,5.19-3.56,3.7-4,56.44-22.66,10.23L261,355.89l5-75.7-6.29-8.86.89-7.11,2.44-3.89-7.11-4.22-2.22-4,3.22-10.55-1.11-5.89,2.66-4.23,6-1.22,1.56-9.89,9.33-6.55L287.11,216l5.89-3,10.61-2.22,3.11,1.61-.66,3.05,1.77-.05,9.61-6.89,9.89-.33,9,2.66,3.17,3.45,3.28,3.5-.95,9.11,4.73,1.61,5.33-2.17,5.28,1.73,7.77-7.34-1.11-6.94,3.56-5.45-1.78-10s4.11-3.55,4.11-3.77-1-9.23-1-9.23,8.22-4.55,8.28-4.72,2.22-9.89,2.22-9.89l8.45-2.76,9.92-12.81,6.89-2.22,1-3.71,9.7,4.82L433,151.67l4.59,2.52L450.11,153l8.89,4.74,10.15,3.11,6.59,14.52L485.67,187l7.48,2.81,9.7,13.26v8.52l-8.74,5.93-10.37-1-26.81,9.93L454.7,239.3,442.41,236l-7.11,3.11L424.48,232l-11.7,1.48L409.67,231l-7.56,2.22-4.59-10.37L386,220.93l-7.11-5.49-14.59,1.67"/>
            <path class="cls-23" d="M412.78,233.52l-.74,8.59,6.52,5.63,11.77,1.78,5.78,6.52,4.15,2.44.22,16.82-2.59,9-5,3.48,1.63,27-10.45-1-1,4.55,7.78,1.34L443,326.67l14.56.33,5.11-3.22.44-7.34,3.33-6.44,1.34-7,3.89-1.67,4.77,2.78,10.89-6.55,8.11-.12,13.89-5,1.45-10.88,3.11-3.34,7.55,2.34,10.67-1.12,8.89,1.34,12.78-11.56s17.22-10.89,17.44-11.55,23.11-6.45,23.11-6.45l13.34,15.56L596.56,429.44l-160-23.33L376,377.67l1-13.11-.44-7.56-.89-12.44,19.77-6.12-1.55-10.77-13-4.08-5.34-6.44-11.63-5-.63-6.89,5.45-10.55,5.55-21.11"/>
            <polyline class="cls-23" points="475.74 175.37 488.94 171.44 501.06 172.17 514.33 165.78 526.39 167.83 534.61 174.78 536.33 181.39 558.22 194.39 575.22 264.78"/>
            <polyline class="cls-23" points="402.11 233.22 397.67 237.22 395.15 246.93 396.26 256.63 389.3 262.04 381.96 263.59 379.44 270.26 374.22 276.44 343.56 252.22"/>
            <polyline class="cls-23" points="397.59 155.15 392.26 143 386.33 138.33 382.41 141.3 376.56 136.78 371.44 132.04 363 132.85 354.48 131.52 350.78 126.56 342.26 125.81 338.63 130.04 329.37 131.07 324.7 135.07 318.78 136.85 319.22 141.44 317 144.56 316.48 149.74 321.59 155.59 337.89 167.67 339.96 171.74 349.44 170.26 353.15 165.15 360.19 165.15 366.04 168.63 374.7 167.3 379.22 170.72"/>
            <polygon class="cls-23" points="166.33 140.11 163.52 149.89 161 159 161.74 165.89 160.56 170.41 161.81 178.85 158.63 187.37 154.04 189.15 148.41 196.78 141.3 194.63 116.78 196.44 106.11 158.56 157.67 138.33 166.33 140.11"/>
            <polyline class="cls-23" points="168.33 113.52 168.42 109.61 166.81 105.53 165.78 94.89 162.33 92.78 161.96 87 156.33 77.3 147.74 73.52 146.39 74.44 148.06 84.72 145.33 90.94 144.22 101.56 146.33 104.61 148.39 111.5"/>
            <polyline class="cls-23" points="149.81 27.67 150.85 40.19 156.04 46.7 158.63 55.07 154.78 63.96 147.3 63.59 141.74 52.33 130.63 56.41 133.67 66.33 138.33 76.7"/>
            <polyline class="cls-23" points="433.48 294.04 422.19 296.22 400.56 293.89 373.22 271"/>
            <polyline class="cls-23" points="266.89 79 253.78 42.22 284.78 4.33 301.67 4 309.44 9.5 316.39 9.33 320.06 17.83 328.72 30.22 341.67 30.67 344.89 38 355.33 51.67 346.89 66.33 326.44 61.89 310.89 71.67 306.78 69.89"/>
            <polyline class="cls-23" points="275.33 213.78 269 211.89 262.85 208.26 264.78 205.44 265.52 202.19 259.15 199.22 254.19 204.19 248.93 202.26 248.56 193.89 243.74 190.7 234.44 193.33"/>
            <polyline class="cls-23" points="317.44 239 319.67 231.56 334.83 224.11 338.17 226.06 339.89 229.37 339.83 232.28 343.37 234.52 344.44 241.44 350.56 238.61 348.78 241.11 347.17 252.67 340.17 259.28"/>
            <line class="cls-23" x1="211" y1="291.67" x2="268.11" y2="304.78"/>
            <path class="cls-23" d="M229.89,209.78l2.83,8.55,4.95,1.67,8,8.11,9.66.17c.17,0,3.23,3.46,3.23,3.46"/>
            <path class="cls-23" d="M28.56,283l-4.23-44.22,38.23-8.67,72.37,24.67,4.46,5.5,6.5,5.09-.3,10.07,5.48,2.23,6.08,7.4,14,3,5.41,11.7,9.33,5.11,6.52,9.26,21.85-22.67,1-10,1.41-9.4,3.81-6.93-1.22-4.44-4.11-1-2.55-8,6.33-6.23,1.78-9.22L215,233.89l-.67-3.78-2.22-4.44,4.33-4.45,3,4,7.45-2.89,1.22-8.66L234.44,201v-7.67L226,190.56l1-8-1.11-10.23,1.11-5.22-2.67-3.67,4.67-5.66-3.78-4.11-3-6.45L213,149.56l-6-2.45,1.44-3,6.12-1.33,1.55-9.89,9.22-2.78-.11-7.33-9.66-4.11L224.44,92l29.23-15.22L279.22,75l11.61-.5,8.28-6.28,11.61-.5L299.78,85.11l9.44,4.56,2.61,7.22L310,103s2,6.22,2.06,6.44,3.05,5.5,3.05,5.5-1.94,3.67-2,3.89-.44,6-.44,6l-3.84,4.05,5.17,3.5,4-.39.78,4.91"/>
            <path class="cls-23" d="M115.3,276.93l.89-3.56s1.33-3.7,1.33-3.93-2.15-4.29-2.15-4.29l2.44-4.52,2-12.44"/>
            <polyline class="cls-23" points="70.89 283.11 70.85 277.44 69.3 273.37 69.22 264.56 73.37 259.96 73.15 253.07 84.11 235.67"/>
            <polyline class="cls-23" points="202.41 112.63 201.81 124.33 184.48 135.74 156.63 133.37 109.52 143.15 102.56 129.52 125.07 111.67 143.28 113.33 148.94 110.78 160.78 109.28 163.89 112.44 172.39 114 180.33 116.72 190.72 119.28 205.33 116.11 219.15 112.33"/>
            <polyline class="cls-23" points="147.44 75.15 135.89 75 116.33 93.22 119.89 117.96"/>
            <polyline class="cls-23" points="300.56 7.78 304 -9.67 388.22 -8.11 388.56 14.33 351.44 49.44"/>
            <line class="cls-23" x1="122.85" y1="252.48" x2="128.04" y2="190.26"/>
            <line class="cls-23" x1="164.22" y1="141.11" x2="170.22" y2="133.56"/>
            <polyline class="cls-23" points="206.89 117.22 208.22 94.44 192.67 39.22 166.67 26.67 159.96 29.22 149.81 27.67 140.48 27.52 135.67 33.44 132.26 46.33 135.89 55.89"/>
            <polyline class="cls-23" points="350.06 239.08 350.94 237.56 348.25 227.58"/>
          </g>
          <path class="cls-22" d="M296.66,73.37l2,1,.67.34.75,0,.83,0-.75,1-1.51,1.94,1.7,1.77h0l-2.93,4.12-1.53,2.14,2,1.68,10.83,9L311,111.4c-3.38,18.93-3.2,19.47-2.93,20.27.33,1,.52,1.57,9.45,7.23l-1.21,10.9-.15,1.32.93,1,20.81,21.63,1.45,1.5,1.86-.93L353.71,168l7.89.61,1.93.15.84-1.75c4.92-10.22,10.5-21.53,12.75-25.71,2.05.57,5.56,1.42,11.71,2.82l8.42,15.47,1.19,2.18,2.33-.9,7.12-2.77L418,159.58l.27,0h.28l15.22-.77,15.06.42,15.84,6.2,6,12.23.13.25.17.22,9.67,12.67.44.58.67.3,8.41,3.7,6.78,13.31-9,2.76-9.11,2-3.66.8,1.76,3.3,14.22,26.78.78,1.47,1.66,0,38.39.88-.58,1.79-.23.73.16.74,1.25,5.73-3.36,5.63L527.64,264l2.8,1.34,3.28,1.58,2.84,2.77,1.14,1.56.76,3.35.24,1.05.87.63,6.3,4.51.54.4.67.1,7.26,1.15-1.37.83-5.36-.09-.93,0-.75.53-3,2.12-5.1,1.87-1,.39-.51,1-3.62,7.24-4,.25-8.37.53-3.86-1.81-.58-.27h-.65l-6.77.07-2.75-.85-1.32-.41-1.13.79-5.13,3.56-5.74,2.95-5.3,2-2.69,1,1.06,2.69,1.95,4.88.53,1.34.3.08-.57.21-3,1.1-.33-.55-.95-.34-4.2-1.49-.45-2.74-.39-2.38h-7.69l-.48,2.23-.78,3.56-.11.47.06.48.89,7.12.1.8.51.63,6.83,8.42-.28,2.73-.33,3.34-.16,1.56,1.24,1,.4.31-.72.85-2.07,2.46,2.71,1.75,4,2.61.4.26.47.11,4.24,1,2.79,2.18.49.38.59.14,5.49,1.33.61,2.19-2.07-1.4-1.38-.93-.83.42-4.32-1.3-7.41-2.22-.43-.14-.46,0-8,.22h-.34l-.33.09-7.47,2.06-4.2-.71-.9-.16-.81.4-.44.22-1.21-2.6.48-2.35.52-2.52.63-3.06-3.11-.33-4.14-.44-.56-.06-.54.15-.7.21-2.89-2.84-.08-.08-.08-.07L440,332l-2.26-5.51-.38-.92-.87-.48-6.3-3.49.39-1.3.31-1.05-.48-1-1.33-2.79.94-3.83.12-.5-.06-.51-1.21-10.2.46-2.95.29-1.89-1.64-1-4.74-2.83L414.51,284l-.28-.25-.33-.16-12.07-6.08-.27-.13-.3-.08-6.49-1.66.11-.69.25-1.7-1.38-1L389.31,269l-.31-.22-.35-.14-7.48-2.88-.82-.32-.85.2-3,.71-3.4-3.4-.09-.09-.1-.08-7.05-5.91.5-.86,1-1.79L366,252.66l-4.91-5.46-1.69-7.35-.26-1.14-1-.62-5.48-3.48-1.8-1.15-1.6,1.42-2.59,2.29-.49.43-.25.6-1.37,3.28-1-2.15-.41-3.07,1.75-1.44,2.41-2-2.21-2.2-3.26-3.26-1.89-1.9-2,1.79-.62.55-3.46.06-1.08,0-.8.73-2.34,2.16-6.33,2.47-.91.36-.5.85-2.52,4.29-.94,1.62,1.11,1.5,2.74,3.7.32.43.08.05-.12,0-2.52.53.3,2.57.74,6.37.06.55.27.48,3.4,6.23.33.59.56.39,8.15,5.55.11.08.11.06,5.29,2.93,6,14.35.17.41.29.34,6.6,7.7.3.35.39.24,9.63,5.78.73.44.86,0,11.16-.51-1.78,2.18L372,305.81l2.12,1.8,3.41,2.89.39.33.49.17,14.35,5.1L411,326.71l0,4-.22-.06-2.36-4.3-.61-1.11-1.22-.29-5.76-1.37L397,321.13l-1.5-1-1.51.93-4.82,3-.94.58-.3,1.07-3,10.67-.36,1.29.76,1.09.53.76-4.69,1.26-3.42-8.08-.82-1.94-2.1.23-4,.43-4.4-2-.2-3.77-.08-1.41-1.17-.79L361.32,321l-.88-.59-1.05.13-3.1.39-3.76-5.05-.3-.41-.43-.27-7.18-4.67-.78-.51-.92.06-5.74.31-9.9-7.15L318.16,293l-.58-.65-.85-.22-4.62-1.16-.93-2.94-.2-.63-.45-.48-5.19-5.41-.29-.31-.38-.2-1.18-.66.05-3.42v-.71l-.33-.63L300.88,271l-2.44-7.56-.4-1.23-1.19-.5L290.37,259,279.06,253l-1.42-.75-1.37.84-7.56,4.59-.56.34-.35.55-4,6.26-11.28,4.33-.62.24-.45.49-4.34,4.73-8.3,1.69-4.42-2.18-1.24-3.26-.75-2-2.11.16-7,.53-8.15-4.48-1.49-.82-1.42.92L204.87,270l-.32.21-.26.29-7.19,8.07-1,1.13.38,1.46,2.3,9-2.68,7.23-11.34,4.92-.34.15-.29.23-3.37,2.67-13.67,2.47-.69.12-.55.43-4.37,3.41-2.09,1.63,1.49,2.19.06.09-.13.1-3.29,1.19-.69.24-.49.56-13.55,15.56-.72.82,0,1.1.22,10.66,0,1.27,1,.82,3,2.55-.16.28-8.63,3.84-.71.32-.45.63-2,2.86-24.15-7.07-7.24-22.54L90.75,289.65l13.1-31.82,5.46.25,6.33,3.27.71.36.78,0,4.3-.29,6.25,2.78.72.31.77-.09,10.56-1.28,1.82-.22.54-1.75,8.62-27.52,1.12,3.17,3.62,10.32,1.84-10.78,1.17-6.83.06-.33,0-.32-.37-6-.08-1.27-1-.78-2.47-2,.08-8.35v-1.23l-.89-.85-6.64-6.33L145,197.24l.6-2.5,1.74-.27,4.49-.69-2.6-3.74-2.06-2.94-.87-1.25-1.53,0-4.27.12c-3-5-3.2-5.37-4.13-5.69-1-.53-7.39-3.81-11.6-6l-.36-.19-.39-.08-4.08-.82-1.36-2.66,1.24-1.83.94-1.37-.75-1.49-.92-1.85,2.34-1,6.19.92.64.09.62-.19,3.45-1.08,3.27,1.29.76,2.47.68,2.19,2.28-.2,6.51-.58,7.29,1.32,2.65.48.62-2.62,2-8.72.18-.76-.19-.61,2.05-.13,3.9-.26,8.75,3.06,1.74.61,1.27-1.34,2.66-2.83.57-.6.15-.82.41-2.16,10.6-3.33.52-.16.41-.34,5.23-4.22.88-.71.14-1.12,1.17-8.77,3.74-2.44,5.38-.39.52,0,.47-.22,8.74-4,7.84.15,2.25,0,.55-2.17.56-2.17.38-1.5L228.29,120l-1.63-1.75,1.87-2.8,5.26-6,.36-.41.18-.51,3.15-8.78.19.56-1,2.25-.08.2-.06.2-1,3.5-.62,2.16,2,1.1L241,112l1.93,1.08,1.52-1.61,4.88-5.18,1.28-1.36-.74-1.71-1.88-4.37-.12-.27-.16-.23-1.44-2,.73-3.22,7.24-1.93,5.87,2.54L263,95l.88-3.11,1.24-4.37,4.35-.61,1.58,2.53.79,1.26,1.5.06,3.66.15,2.78.11.17-2.77.24-3.9,3.56,1.32,4.87,3,7.23,4.51-3.09-7.94-1.89-4.85-.28-.73-.61-.48-2.29-1.78h2.62L291,77l5.62-3.58M157.5,150.79v3.14l-1-3,.37-.05.59-.06m139-80.68-7,4.45h-7.61l0,1.92,6.3,4.93,1.89,4.85L285,83.07l-5.3-2-2.26,1.56L277.15,88l-3.67-.15-2.55-4.08-8,1.12-1.74,6.14-6.78-2.92-9.85,2.63-1.37,6.11,2.14,3.07,1.89,4.37-4.89,5.19-4.11-2.3,1-3.5,1.5-3.28-1.39-4-3.72.17-3.94,11-5.39,6.11-3.22,4.83,3.16,3.39-.55,2.17-8.5-.17-9.34,4.33-6.11.45-5.44,3.55-1.34,10.06-5.22,4.22-12.22,3.83-.72,3.84L174.11,157l-9.3-3.26-4.48.3v-6.43l-3.74.43-2.7-1.93-1.45,1.22,3.28,10.39-2.05,8.72L146,165.06l-6.89.61-1.17-3.78-5.46-2.15-4.41,1.37-7-1-5.81,2.56,2.26,4.52-2.19,3.22,2.74,5.37,5.43,1.09s11.67,6.06,11.83,6.11,3.61,5.95,3.61,5.95l5.95-.17,2.05,2.95-3.61.55-1.27,5.28,2.72,6.22,7.05,6.72-.09,9.75L155.3,223l.37,6-1.17,6.83-3.94-11.22-11.17,35.67-10.56,1.28-6.89-3.06-5,.33-6.88-3.55-8.07-.37L87.74,289.52l12.45,40.15,7.7,24,27.53,8.06,3.21-4.51,9.48-4.22,1.78-3.11-4.74-4.08-.22-10.66,13.55-15.56,3.71-1.33,2.59-2-1.56-2.3,4.37-3.4L182,308l3.93-3.11,12.44-5.41,3.41-9.18-2.52-9.85,7.19-8.08,7.33-4.74,8.89,4.89,7.85-.59,1.63,4.3,6.3,3.11,10.15-2.08,5-5.41,12.15-4.66,4.52-7,7.55-4.59,11.41,6,6.59,2.81,2.52,7.78,2.44,4.74-.07,5.11,2.67,1.48,5.18,5.41,1.41,4.45,6.15,1.55,9.33,10.52,11,7.93,6.74-.37,7.19,4.66L355,324l4.74-.59,3.63,2.44.3,5.49,6.66,3,4.82-.52,4.38,10.36,11-2.95-2.85-4.07,3-10.67,4.81-3,4.3,2.74,6.22,1.48,3,5.41,5,1.18-.08-9.26L394,313.52l-14.59-5.19L376,305.44l3.34-4.07-2-2.81-13,.59-9.63-5.78-6.59-7.7-6.37-15.26L335.52,267l-8.15-5.56L324,255.22l-.74-6.37,2.45-.52,1-3.18-2-1.26-2.74-3.7,2.52-4.3,6.81-2.67L334,230.7l4.52-.07,1.41-1.26,3.26,3.26-3,2.44.66,5,2.89,6.45,1.63.37,3.19-7.63,2.59-2.3,5.48,3.48,1.85,8.08,5.41,6-1.7,2.92,8.88,7.45,4.52,4.51,4.56-1.07,7.48,2.89,4.44,3.26-.48,3.22,9,2.3,12.07,6.07,9,7.93,5,3-.52,3.33,1.26,10.6-1.19,4.81,1.78,3.7-1,3.49,8.3,4.59,2.52,6.15,7,5.92,4.08,4,2.29-.66,4.15.44-.52,2.52-4-.15v2.52l3.71,1.7,2.44,5.26,3-1.48,4.81.82,8.08-2.23,8-.22,7.41,2.22-2.34,2.42,3,1.6,5.1-2.57,6.34,4.28H502l-2.72-9.78-7.11-1.72L488.89,346l-4.83-1.17L480,342.22l2.61-3.11L479.89,337l.33-3.33,2.84.22,1.05,3.17,2.22-1.56-.89-2.89-5.5-3.67-6.88-8.5-.89-7.11.77-3.55h3l.73,4.39,5.77,2.05,2,3.28,3.28,1.39,1.17-1.22-3.28-2.56,3-1.11,3.45,2.61,1.11-1.17L491,314.28l.83-1.22,5.67,1.5-1.5-2.34-6-1.55-1.94-4.89,5.44-2.06,6.06-3.11,5.27-3.67,3.17,1,7.22-.08,4.52,2.11,9.09-.57-4.77,6.17.27,4.44,5.23-8,5.11-3.44,4.11-8.23,5.44-2,3.34-2.33,6.18.11,3.41-2.07.22-4-9.85-1.56-6.3-4.52-.89-3.92-1.63-2.23-3.33-3.25-3.7-1.78,3.92-6.59-1.48-6.82,1.41-4.37,3.7-1-45.55-1-14.23-26.78,9.23-2L501,210.44l-8.78-17.22-9.33-4.11-9.67-12.67-6.44-13.22-17.34-6.78L433.78,156l-15.34.78-10.88-1.56-7.82,3-9-16.59s-14.37-3.26-14.81-3.71h0c-.65,0-14.07,27.85-14.07,27.85l-8.66-.66L340,171.74l-20.81-21.63,1.41-12.67s-9.56-6-9.78-6.66,3.11-19.34,3.11-19.34l-2.45-16.66-11.66-9.67,4.5-6.32-.56-.07-1.28-1.33,2.62-3.33-.12-2.39-4.94.22-3.49-1.78Z"/>
        </g>
      </g>
      <g id="Layer_13" data-name="Layer 13">
        <g>
          <path class="cls-24" d="M445.67,233c-2.31,26.16,15.77,39.11,24.58,66.26"/>
          <polygon class="cls-22" points="465.02 299.29 472.19 306.11 474.51 296.5 465.02 299.29"/>
        </g>
        <g>
          <path class="cls-24" d="M459.67,276.44c4.89,10.89-6.43,33.22.44,48.12,4.89,10.59,20.4,13.71,9,20-6.62,3.66-12.43-13.53-20.34-20.66"/>
          <polygon class="cls-22" points="452.22 320.49 442.33 320.93 447.65 329.26 452.22 320.49"/>
        </g>
        <g>
          <path class="cls-24" d="M457.56,272.56c5.11,10.77,64.33,22.77,76.22,13.66,9.77-7.49-.43-13.55-10.73-18.31"/>
          <polygon class="cls-22" points="526.4 264.05 516.56 265 522.3 273.06 526.4 264.05"/>
        </g>
        <g>
          <path class="cls-24" d="M369.07,212.63c-19.55-1-74.37,17.18-46.37,55s43.86,34.08,55.41,46.22c9.73,10.23,2.44,15.42-7.71,10.35"/>
          <polygon class="cls-22" points="374.36 320.65 364.48 320.19 369.02 328.98 374.36 320.65"/>
        </g>
        <g>
          <path class="cls-24" d="M373.07,186.11c-37-8.89-66.66-12.74-89.48-36.44s-82.07-1.48-67.55,17.77a300.8,300.8,0,0,1,19.65,29.64"/>
          <polygon class="cls-22" points="230.63 198.28 239.15 203.3 239.24 193.4 230.63 198.28"/>
        </g>
        <g>
          <line class="cls-24" x1="387.67" y1="171.67" x2="379.4" y2="164.21"/>
          <polygon class="cls-22" points="383.79 161.51 374.11 159.44 377.16 168.85 383.79 161.51"/>
        </g>
        <g>
          <path class="cls-24" d="M333.54,222c-16.76,11.49-57.06,19.49-92.91,10.3s-54.74,58.7-72,71.71c-15.34,11.56-41.09,37.43-56.61,29.33"/>
          <polygon class="cls-22" points="116.46 330.24 106.7 328.63 110.19 337.89 116.46 330.24"/>
        </g>
        <g>
          <path class="cls-24" d="M173.52,298.7c-7.82,8.65-62.54-44.33-73.83-12.28"/>
          <polygon class="cls-22" points="95.37 283.87 98.11 293.37 104.97 286.24 95.37 283.87"/>
        </g>
        <g>
          <path class="cls-24" d="M230.85,144.19c-13.83,7.58-77.92,20.88-72,39.25,5.2,16.12,27.49,25.16,44.89,29.34"/>
          <polygon class="cls-22" points="201.28 217.25 210.7 214.26 203.4 207.59 201.28 217.25"/>
        </g>
        <g>
          <path class="cls-24" d="M350.28,215.17c-8.25,3-19.68.15-28.92-4.74"/>
          <polygon class="cls-22" points="325.19 206.83 315.3 206.7 320.13 215.33 325.19 206.83"/>
        </g>
        <g>
          <path class="cls-24" d="M456.67,270.78c4.28,6.61-10.88,16-22.9,13.28"/>
          <polygon class="cls-22" points="437.16 279.88 427.33 281 433.21 288.96 437.16 279.88"/>
        </g>
        <g>
          <path class="cls-24" d="M400.78,222c-6,8.14-14.66,33.77-32.56,20.11"/>
          <polygon class="cls-22" points="372.68 239.27 363 237.22 366.06 246.63 372.68 239.27"/>
        </g>
        <g>
          <path class="cls-24" d="M283.59,149.67s-15.7-13.56-22.59-29.11c-5.67-12.81,9.89-19,21.9-21.77"/>
          <polygon class="cls-22" points="282.49 104.01 289.89 97.44 280.5 94.31 282.49 104.01"/>
        </g>
        <g>
          <path class="cls-24" d="M187.59,276.93c-3,5-15.72,4.23-17.3-6.08"/>
          <polygon class="cls-22" points="175.44 272.46 170.78 263.74 165.55 272.14 175.44 272.46"/>
        </g>
      </g>
      <g id="COASTK">
        <path class="cls-25" d="M596.93,194.26l-4.08-1.11-2.37,1-4.37-1.55-4.15,1.7-1.77-1.33,6.44-9,3.18-1.11,2.52-4-1.92-2.74-3.63,1.26-4.15.37-6.52,3-5.85-1.48-2.67.89-3.53-3.78,8.11-1.66,2.5-3.23-5.95.28-8.39,3.45-6.16,3.39-1.34,9.55-3.05,5.39-4.95,3.56-.77,3.27,2.66,3.67.45,9.33-5.11,3.28-2.73-3.11-1.77,2.17,1.66,19.55,1.56,6L539.22,244l-3.7,1-1.41,4.37,1.48,6.82-3.92,6.59,3.7,1.78,3.33,3.25,1.63,2.23.89,3.92,6.3,4.52,9.85,1.56-.22,4-3.41,2.07-6.18-.11-3.34,2.33-5.44,2-4.11,8.23L529.56,302l-5.23,8-.27-4.44,4.77-6.17-9.09.57-4.52-2.11-7.22.08-3.17-1-5.27,3.67-6.06,3.11-5.44,2.06,1.94,4.89,6,1.55,1.5,2.34-5.67-1.5-.83,1.22,2.17,3.16-1.11,1.17L488.61,316l-3,1.11,3.28,2.56-1.17,1.22-3.28-1.39-2-3.28-5.77-2.05-.73-4.39h-3l-.77,3.55.89,7.11,6.88,8.5,5.5,3.67.89,2.89-2.22,1.56-1.05-3.17-2.84-.22-.33,3.33,2.72,2.11L480,342.22l4.06,2.61,4.83,1.17,3.28,2.56,7.11,1.72,2.72,9.78h-1.72l-6.34-4.28-6.61,3.33,1.67,3.95,4.56,1.11,2.05,1.83-4.94,3.28-2.89-3.45-4.56.11,2.5,5.67,4.84,6.39,1.88,6.78-2-.34-3.61-3.55-2.77.17-1.17,6-1.61-.56-2.61-6.33-3.78-2.5-.95,4-1.11,1.16-5.27-5.33.44-6.22-5.33-3.72-4.56-4.12,2.45-1.48,2.29-4,3.11-.07,4.37-2.45,8.82,1.78,4.52,1.78,4.52-4.67-7.41-2.22-8,.22-8.08,2.23-4.81-.82-3,1.48L454.41,350l-3.71-1.7v-2.52l4,.15.52-2.52-4.15-.44-2.29.66-4.08-4-7-5.92-2.52-6.15-8.3-4.59,1-3.49-1.78-3.7,1.19-4.81L426,300.33l.52-3.33-5-3-9-7.93L400.56,280l-9-2.3.48-3.22-4.44-3.26-7.48-2.89-4.56,1.07-4.52-4.51-8.88-7.45,1.7-2.92-5.41-6-1.85-8.08L351.15,237l-2.59,2.3-3.19,7.63-1.63-.37-2.89-6.45-.66-5,3-2.44-3.26-3.26-1.41,1.26-4.52.07-2.74,2.52-6.81,2.67-2.52,4.3,2.74,3.7,2,1.26-1,3.18-2.45.52.74,6.37,3.41,6.22,8.15,5.56,6.15,3.41L348,285.67l6.59,7.7,9.63,5.78,13-.59,2,2.81L376,305.44l3.41,2.89L394,313.52l19.85,11.55.08,9.26-5-1.18-3-5.41-6.22-1.48-4.3-2.74-4.81,3-3,10.67,3.11,4.44,5.26,1.93,2.15,7.48-1.41,2.22-5.26,1-1.63,3.11-.22,5.78-5.56,6.52-1.48,3L378,371.59l.3-5,2.59-2.74.08-4.74,4.37-4.37L382,349.86l-6.81-16.05-4.82.52-6.66-3-.3-5.49-3.63-2.44L355,324l-4.74-6.37-7.19-4.66-6.74.37-11-7.93L316,294.85l-6.15-1.55-1.41-4.45-5.18-5.41L300.63,282l.07-5.11-2.44-4.74-2.52-7.78-6.59-2.81-11.41-6-7.55,4.59-4.52,7-12.15,4.66-5,5.41-10.15,2.08-6.3-3.11-1.63-4.3-7.85.59-8.89-4.89-7.33,4.74-7.19,8.08,2.52,9.85-3.41,9.18-12.44,5.41L182,308l-14.37,2.6-4.37,3.4,1.56,2.3-2.59,2-3.71,1.33-13.55,15.56.22,10.66,4.74,4.08L148.11,353l-9.48,4.22L134,363.67l-.08,5.77-8.59.6-8.44,4.52-6.45,7.77-5.41-1.55-4.37,1-14.29-4.15-9.85-.52-4.89,3.41L67.59,379l-10.37,6.3L50,380.41l-3.26-8.52.23-4.89L40,358.93l-13.85,2L18.26,356l-8.3-.23,4.6-7,1.33-9.92,4.44-9-6.52-.74-.29-4.07-2.45-3.34,5.12-10.07L26,301.89l3.85-9.11L34,285.67l-.07-15.41,5.28-12.37-4.06-9.11,1.56-3.72,6-1.78,4,.72,6.44-4.06,7.56-.27,4.27,4.27,12.45,3.34,8.33.89,15.84,6.72,8.5.39,6.88,3.55,5-.33,6.89,3.06,10.56-1.28,11.17-35.67,3.94,11.22,1.17-6.83-.37-6-3.56-2.81.09-9.75-7.05-6.72-2.72-6.22,1.27-5.28,3.61-.55-2.05-2.95-5.95.17s-3.44-5.89-3.61-5.95-11.83-6.11-11.83-6.11l-5.43-1.09-2.74-5.37,2.19-3.22-2.26-4.52,5.81-2.56,7,1,4.41-1.37,5.46,2.15,1.17,3.78,6.89-.61,7.67,1.38,2.05-8.72-3.28-10.39,1.45-1.22,2.7,1.93,3.74-.43V154l4.48-.3,9.3,3.26,2.67-2.83.72-3.84,12.22-3.83,5.22-4.22,1.34-10.06,5.44-3.55,6.11-.45,9.34-4.33,8.5.17.55-2.17-3.16-3.39,3.22-4.83,5.39-6.11,3.94-11,3.72-.17,1.39,4-1.5,3.28-1,3.5,4.11,2.3,4.89-5.19L245.33,100l-2.14-3.07,1.37-6.11,9.85-2.63,6.78,2.92,1.74-6.14,8-1.12,2.55,4.08,3.67.15.33-5.37,2.26-1.56,5.3,2,5.11,3.19-1.89-4.85L282,76.48l-.07-2.7-2.33-1.11-.34-1.74,3.22-1.34L279.93,63l-.43-10.39L274.22,48l1.22-7.06-.66-10.83,5,1.67,3.82-4.45,9.07-2.55,3.49,2.29,1.25,3.71L301.89,32l.3,4.3-4.52,1.18-4.61,7-3.28,6.28.33,5.22-1.39,3.45,2.17,4,3.5,3.12L294.33,69,300,71.89l4.94-.22.12,2.39-2.62,3.33,1.28,1.33,5,.61,4.39-3.94,5.17-2.33L321.89,69l3.11.94,5.33,5.45,3.61-.06,2.28,5.89,3.78.56,3.33-5,16.34-6.33,3.89-5.94,7.38-4,10.56-2.44,4.94,1.39-.59.92-2.22.11-.07,1,3.29,3.7,5.93-.26,5.11-5.52.39,1.46-4.61,5.47,1.4,1,3.82-3.74,4.18-4.6-4.14-1.81.07-3.89,5.3-2.18,3-5.15.22,2.63-1.11,3.63,2.41.77,2.44-1.26L410,44l-3-9L404.48,18,407,13.56s-.15-5.23-.15-5.34,2.48-5.81,2.48-5.81l5.93-3.52,4,3.55,4.18,2.67L425.59,9l5.3,1.33,4.92-6.3-1.74-7.44m-1.18,334.81-.78,1.89,4.56,5,3.05.95-.44-1.78-3.45-2.83-.61-2.89ZM280,20.3l-4.22,5.85,3,2.89,3.78-3.82,10.67-2.89,3.15.52,3-5.41L298.07,12l1.49-3-6.23,3-5.14,7.44-5.12.19Zm49.64,44.51-2.39,2.77.47,2.84,2.22,2.27,3.25-1.27L332,68.31l.39-1.78ZM343.37,52.7l-.67,3.45,3.45,1.59,1-.48.59-1.74ZM307.17-2.78l.72,5.06L310.39,5l.78,4.33,1.66,5.5,2.23,2.34,1.83,5.89,3.61,4.22,2.33,1.94.23,2.17-1.78,1.11.78,3.22-2.89-.55,1.72,5.11,3.05,3.55-.11,7.28,4.34,2.11,5.72-2.16,3.28-.23L339,48.89l-2-4.17,2.83-5.66,2.34.38.66-2.88,8.23-.78,2.44.72,4.39-12.72,1.22-5.84-1-4,1.5-3.61-1.17-5.61.23-5.44m1.64,22.5-1.89,5.91.64,6.17,1.44-.28.06-2.39,3.5-17.52-1.42.36L361,20.61l-.72,1.17ZM378.48,1.85l-3.33,2.93L374,10.67l1.41,4.52-.33,4.4,2.15-.85.7-4,2.3-1.63,1.22-3.33-1.22-2.67.22-3.33,3-4.11-2.37-.56-1.29,2.41ZM319,40.26l-2.85-.56-2.75,1.77-.63,5.08-1.66-.09-1-4-2.25,1.79-1.24,2.13-2.51.46.91,2.92,1.35,2.06-.56,3L307,56.07l3.82-.22,1,5.41,1.48,2.37,2.21-.54.35-6.64,3.05-2.58-2-3.06,2-2.68,1.88-.72L319,43.26ZM305.72,61l-2,.22-.4,2.93,4.21,2.43,2.06-.7,1.24.17.2-2.86-2.77-.2ZM292,50.11v3.22l1.36,3.48,5.36,2.13,3.36-2.16.28-3.2-1.78-5.19-2.05,1.33-1.89-.94ZM139-1.56,139.44,3l-2.63,3.74-4,2.85,1.59,3.67,5,1.74-4.59,8.52L131.07,34l1.08,2,4.11-10.37,1.22-1.93,1.26,2.85,4.3-1.11-2.43,5,1.61,4.83-4.55,6.78-2.23,1.11-.55,2.39,1.72,3.5,2-1.72,4.5,1,3.17,1.17,5-2.23,2.44,2-3.61,6.39,2.17,6.45,4.11.89-2.72,8.53-6.45,5.82-5.85-.11-4.67,3.14-2.07.82-2.52,3.26,5.78-1.45,1,7.12-3.82,4.59-11.63,3.66-1,3.78,3.3,2.67,5.59-.93,1.45,3.56,4.41.85,4.74,4.22,4.14-2,5.15-.67-5.85,5.19-4.3,1-8.26-1.85L129.89,117l-2.37.37L125.89,121l-8.37,6.67-3.24.94-3.45,2.45,3.61,2.22,5.62-3.06,8.94-1,3.22,3.39,2.72.06,3.62-6,6.38-.67,3.5,2.67,5.67,1,4.28-1.78,17,.83,4.83,2.11,9.22-2.39.84-2.11,3.94-1.44,1.39-4-6.83-.16-1.95-2.61,3.06-1.56.5-3.61h3.39l2.72-2.94,3.17-2.84L201.5,98l-2.78-5.17-8.44-1.89L186.5,93.5,184,90.94l3.89-4.61-2.53-5.91-2.22-2.5,3.11-.06-2-5.83,1.28-3.22-5.11-7.59-5.67-6.16L173.59,41l-5-8.44-4.74-3.19-3.41.93-4.78-1.74,5.45-2.41h2.78l1.85-1.89-2.74-3,5.15-2.89L174,9.63l1.3-3.44,2.4-1.41-.77-3.48-3.34-2.74ZM127.41,24.52l-2.56,1.18,2.08,4.41L129,27.48l.11-2.89Zm3.78-12.69-1.76.6.93,2.27-2.13,2,.66,1.36,4.07.3,1.36-3-1.84-.71ZM130.3-.41,132,1.78l1.52,2.37,2.67-.93,1.37-1.7L134.15-.81Zm9.7,56L137.15,58l-1.48,2.6,1.59,1.07L141,58.81l-.11-3.18ZM111.59,90.37l.08-2.11,3.26-3.89,3.55-7.85.19-15.22,1.85-3.41,3.63-.08,4.18-4,1.93-4.37-1.85-1.89.63-3-2.56-3.59-.67-4.15L118,36.33l-3.56-5.07-3.78,3.15-7.18-1.34-1.37,3.78-4.59,2.59,1.33,2.75,3.63.48-1.41,2.77-3.48,1L95,47.89,90.67,46l-9.15-2.19-1,2.37,2.11,2.85-.81,5.3-4.22,2.44-.71,3,5.08,4.3,4.07.37.3,2.11-3.78,1-2.08,3.93-5.33,1.92,1.59,1,6.08.45-1.52,1.29-5.11.26-2.22,2.63-4.34-.59-2,2.55,2.74,2.19-4.48,2.18.48,1.67,5,1.22L68.48,91l3.71.71-2.08,2.52,4.48.7,9.3.41L87,94.64l1.18-2.94,3.43,1.72L101,89.85Zm84,243.44-6,1.41-6,3.85,1.45,2.86,2.89-1.12,1.51,3,3.37,2,2.75-1.41L199.3,339l-1-2.33-1.85,1.3-.89-1,.71-2.41Zm-23.7,13.52-4.15-.18L165.59,350l1.93,1.37,3.85-2Zm33.7-14.63-.37,2,2.37.37,3.37,2.22,1.19-1.11-2.3-3.15-4.26-.37ZM309.7,421.56l-.89-3.6-5.11-2.74L301,409.78l.63-4.41,4.18-2.52,2.15-4.66,2.81-3.12-1.51-3.51-4,3-2.82.51L300.26,398l-1.93-.67.15-2-1.55-2.4V389.7l-3.12-1.22-2.74.71-1.77-1.82-6.82,2.07-6.67,4.3-6.37.22-7.4,1.56L256.78,392,251,390.93l-.07,2.44-7.34-.74-3.33-2.15-2.74.67-2.59,2.59L222,397.3,217.37,394,207,392l-10.59,1.19-8.15-1.37-8,2.92-17.52-.89s-16.7,4.52-16.81,4.52-4.45,4.08-4.45,4.08l-3.11,1.81-4.4-1.55L126,405.19l-7.19,4.18-8.92,3.33-7.26-.4-8.52-2.49-.89-5-6.7,2.45-5-2.33-9.25.4-8.62-5-5.08-8.47,1.75-3.2-1.61-.77L56.31,389l-6.57,0L38.63,406.19,28,417.67l-13.18,4.14v7.56h299ZM272,355l3.26,3.07,4.41-1.59.89-4.41,6.11,1.37,3.11-16.81-1.26-3.37,2.3-4.93-2.71-7.85L286.52,317,283,315.22l-4.22,2.08L275,321.37l-4.82.44-1.92-1.22-.52,4.19,3.52,5.44.51,4.89-1.22,2.82,2,2.44-1.4,4.63-.82,3.07.26,3.26Zm5.15-47.11,4.93,3.81,3-5.18,0-4.52,2.74-4.6-.71-7.63-1-1.51-.18-6.52-1.41.37-.82,5.48-2-.52-3,1.74-3,1.48L274,293.85,275,295l-.85,2.11,1.7,2-1.4,2.52,2,1.63-.52,1.81,2.19,1.19Zm73-67.18-.69,1.41.95,5.09,1.78,3.31.43-.6-.87-6.12Zm31.58,34.89,4.06.58,3.86-.33.5-1-3.55.06-3.37-.86-2.44.38Zm8,2.3-6,1.16,2.29,1.14,1.56-.62,3.25-.25-1.51-1.15-5.84.13ZM596.17,263l-6,5.61-1.5,4.83-5.45,2.39-7.72-.33-5.89,2.5-9.5,1.5-.05,5.22,3.11,1.47,7.19-.52.2,1.44-9.5,3.25-2.64,2.72.52,2.78-11,3.22-1.8-2-2.56.25-.64,3.81-3.55,1-2.73-1.53-1.83.95-3.17,1.16-5.27,8.56-2.23,1.28.53,8.83,10.89-3.81.45,1.7-2.14,3.64,2.69,2.52.89,3,2.06,2.59-1.95,2.33,2.14,5.58-2.81.42-1.83-3.33-1.25-.48L532.53,337l1.25,2.69-1,3.23,3.69,1.19,3.39-1,3.25,1.64,5,.61.25,4.34-1.28,1.61,3.14,4.61,4.5.92-.28,2.27-2.61,1.36.42,2L566,358.08l-.56,2.86-2.88,2.12-6.23,3,2.34,1.27,3.86-2.52,3.8.8,3-4.05,7,.88,3-1.27,4.19,5.44,6.08,1.31,6.67-2.25m-68.11-43.23-1.95.81-1.36,1.94-2.72.75,1.56,2.73,3.27-1.36.31,2.16h5.22l.75-2.72-2.55-2.17-.64-2.16Zm-.84,15.3-2.23,1.41,2.86,3-1,1.85,1.7,1.63,1.78-2.56-.7-4.81Zm-40.52.19-4.37,3.4,1.44,1,3.74.44,5.82,3.22.74,1.67,5.7-.11,3.45,4.55,5.14,1.78.63-3.11-4.48-.55-2.48-3.93L501,342.78l-5-.3-5.19-1.55Zm18.39,60.29-2,2.61-.5,2.84,2.27,2.16,15.89-.77,2.06,2.72,14.94-4.67,7.06-.94.78-5.75-.61-.7-2.28,2.72-2.45.5-2.66,2.23-1.78-3.89-3.5,1.11-6.06,1.22-3.94-1-7.5,3.17-3.42-1.72-.05-2.31-2,.08-1.75,2.06Zm63.53-29.15-4.11,2.45-1.92,4.07.81,1.63,0,2.22.89,1.08,3.92-4.26,0-3.07.81-3.41Zm-42.76-4.32L524,367.17l1,2.11,1.31.3,1.11-3Zm-76.77-9.89-1.39,2.28-1.5.89.05,1.94,3,1.47,3.69.2-.06-1.81-2.75-1.69,1.53-1.72-.94-2.14Zm2.91,9.56-1,1.61,3.19,2.66,2.83-.88-1.91-2.5-1.61.19Zm56.23-49.14.58,3.08,2.42-.94,1.44.83,1.06-4.39-.67-.11-1.83,1.06-1.7,0ZM500,303l-1.67,2.3,2.25,1.56,1.47-1.64-.36-2.33Zm45.09,46.29-3.85.2-2.41,1.66.16,1.25,2.76-.45,1,.44,2.72-2.19Zm-33.43,3.1-.75,1.8,3.5,2.86,4.42,2.61,1.64-1.8-3.94-1.2-2.25-3.08Zm0,23.66-1.75.39.08,1.95,2.86-1.31.11-1.92Zm44.22,7.73-.15,3.08-.67,1.26,1.52,3,1.74-1.3-1.44-2v-4.33ZM363.67,412l-.25-1-2.23-1.64L358,408.31l.75,1.83,1.42.61,1.17,2,2.63.28ZM333.39,371l-1.45,2-1.83,1.39-.55,4.27,3.33,3.45,3.83-.28L352,390.07l4.44-.35,5.5,5.11,4.28,1.36,4.67.16-.22-3.33,2.16-3.78-1.61-3.39-1.83-2.66,1.67-7.23,4.83-9.11-1.67-.58-3.44,1.42L369,369.35l-5.44.22-4.34,2.78-7.05.5-3.61.84-6.12-3.17-3.77-.06-.56,2.28-2.44.33Zm-72.56-372-.63,2.26,1.1.94,2-1.06,1.19,2.12,5.65,0L275,.93l1.76.18.87-2.18Z"/>
      </g>
      <g id="labelinm">
        <g id="pol-2" data-name="pol">
          <text class="cls-26" transform="translate(156.69 214.33)">W. FRANCIA</text>
          <text class="cls-26" transform="translate(250.81 165.22)">E. FRANCIA</text>
          <text class="cls-27" transform="translate(382.75 120.48)">POLES</text>
          <text class="cls-27" transform="translate(407.08 95)">MAZOVIANS</text>
          <text class="cls-27" transform="translate(432.96 140.63)">VOLHYNIANS</text>
          <text class="cls-27" transform="translate(519.38 158.48)">PECHNEGS</text>
          <text class="cls-27" transform="translate(325.88 106.7)">WENDS</text>
          <text class="cls-27" transform="translate(427.49 38.85)">BALTS</text>
          <text class="cls-26" transform="translate(229.69 252.48)">PR</text>
          <text class="cls-26" transform="translate(242.49 219.59)">BU</text>
          <text class="cls-26" transform="translate(279 48.35)">DENMARK</text>
          <text class="cls-26" transform="translate(401.86 200.72)">HUNGARY</text>
          <text class="cls-26" transform="translate(60.06 326.35)">CORDOBA</text>
          <text class="cls-26" transform="translate(43.43 267.69)">GA</text>
          <text class="cls-26" transform="translate(84.33 272.91)">LE</text>
          <text class="cls-26" transform="translate(122.74 275.02)">NA</text>
          <text class="cls-26" transform="translate(114.17 178.2)">BRITTANY</text>
          <text class="cls-26" transform="translate(166.42 77.09)">DL</text>
          <text class="cls-26" transform="translate(128.29 127.02)">WESSEX</text>
          <text class="cls-26" transform="translate(129.72 104.46)">W</text>
          <text class="cls-26" transform="translate(149.37 98.95)">M</text>
          <text class="cls-26" transform="translate(462.54 266.43)">BULGARIA</text>
          <text class="cls-26" transform="translate(464.43 342.71)">BYZANTINE EMPIRE</text>
          <text class="cls-26" transform="translate(395.28 273.17)">SERBIA</text>
          <text class="cls-26" transform="translate(351.71 255.17)">CROATIA</text>
          <text class="cls-26" transform="translate(328.1 155.61)">BOHEMIA</text>
          <text class="cls-26" transform="translate(497.68 64.65)">KIEVAN<tspan x="9.93" y="15.31">RUS</tspan></text>
          <text class="cls-26" transform="translate(284.13 272.58)">ITALY</text>
        </g>
        <g id="cities">
          <text class="cls-28" transform="translate(299.88 309.89)">Rome</text>
          <text class="cls-28" transform="translate(361.59 312.63)">Benevento</text>
          <text class="cls-28" transform="translate(484.13 285.26)">Constantnople</text>
          <text class="cls-28" transform="translate(521.67 251.19)">Preslav</text>
          <text class="cls-28" transform="translate(75.96 354.19)">Cordoba</text>
          <text class="cls-28" transform="translate(186.26 315.59)">Barcelona</text>
          <text class="cls-28" transform="translate(255.58 248.82)">Pavia</text>
          <text class="cls-28" transform="translate(202.19 166.44)">Paris</text>
          <text class="cls-28" transform="translate(265.67 180.52)">Regensburg</text>
          <text class="cls-28" transform="translate(180.04 114.67)">London</text>
          <text class="cls-28" transform="translate(249.3 134.44)">Aachen</text>
          <text class="cls-28" transform="translate(402.63 184.57)">Esztergom</text>
          <text class="cls-28" transform="translate(291.2 234.67)">Venice</text>
        </g>
        <g id="water-2" data-name="water">
          <text class="cls-29" transform="translate(213.76 378.74)">MEDITERRANEAN</text>
          <text class="cls-29" transform="translate(30.06 189.26)">ATLANTIC<tspan x="8" y="17.01">OCEAN</tspan></text>
          <text class="cls-29" transform="translate(379.94 407.33)">SEA</text>
        </g>
      </g>
      <g id="symbolsd">
        <use width="4.25" height="4.25" transform="translate(176.65 114.43)" xlink:href="#city"/>
        <use width="4.25" height="4.25" transform="translate(245.32 134.5)" xlink:href="#city"/>
        <circle class="cls-3" cx="401.01" cy="186.59" r="2.13"/>
        <use width="4.25" height="4.25" transform="translate(325.69 299.91)" xlink:href="#city"/>
        <use width="4.25" height="4.25" transform="translate(358.65 312.58)" xlink:href="#city"/>
        <use width="4.25" height="4.25" transform="translate(554.53 281.61)" xlink:href="#city"/>
        <use width="4.25" height="4.25" transform="translate(517.27 250.36)" xlink:href="#city"/>
        <use width="4.25" height="4.25" transform="translate(72.58 352.73)" xlink:href="#city"/>
        <use width="4.25" height="4.25" transform="translate(182.82 303.76)" xlink:href="#city"/>
        <use width="4.25" height="4.25" transform="translate(279.54 240.73)" xlink:href="#city"/>
        <use width="4.25" height="4.25" transform="translate(198.95 166.5)" xlink:href="#city"/>
        <use width="4.25" height="4.25" transform="translate(316.65 168.08)" xlink:href="#city"/>
        <use width="4.25" height="4.25" transform="translate(321.76 233.93)" xlink:href="#city"/>
      </g>
    </g>
  </g>
  <g id="Layer_17" data-name="Layer 17">
    <rect class="cls-1" width="113.39" height="130.39"/>
    <polyline class="cls-30" points="0 130.39 113.39 130.39 113.39 0"/>
    <text class="cls-31" transform="translate(14.27 13.59)">HUNGARIAN RAIDS<tspan x="18.54" y="11.91">IN EUROPE</tspan></text>
    <text class="cls-32" transform="translate(21.04 34.82)">ca. 9th-10th century</text>
    <text class="cls-33" transform="translate(11.41 96.66)">M : Mercia<tspan x="0" y="8.5">W : Wales</tspan><tspan x="0" y="17.01">DL : Danelaw</tspan><tspan x="0" y="25.51">GA : Galicia</tspan></text>
    <g>
      <path class="cls-24" d="M7.67,52.78c7-2.3,11.38.83,17.84,1"/>
      <polygon class="cls-22" points="24.59 58.65 32.56 52.78 23.49 48.82 24.59 58.65"/>
    </g>
    <text class="cls-34" transform="translate(35.11 53)">General raid<tspan x="0" y="8.5">routes</tspan></text>
    <text class="cls-34" transform="translate(35.11 73.67)">Areas subject to<tspan x="0" y="8.5">raids</tspan></text>
    <path class="cls-22" d="M26.6,72v5.67H12.43V72H26.6m2.84-2.83H9.59V80.49H29.44V69.15Z"/>
    <text class="cls-33" transform="translate(60.35 96.66)">LE: Len<tspan x="0" y="8.5">NA : Navarra</tspan><tspan x="0" y="17.01">BU: Burgundy</tspan><tspan x="0" y="25.51">PR : Provence</tspan></text>
  </g>
</svg>
